<?xml version="1.0" encoding="UTF-8" standalone="no" ?>
<COLLADA xmlns="http://www.collada.org/2005/11/COLLADASchema" version="1.4.1">
  <asset>
    <contributor>
      <author>Assimp</author>
      <authoring_tool>THREE.GLTFExporter r178</authoring_tool>
    </contributor>
    <created>2026-01-30T13:24:50</created>
    <modified>2026-01-30T13:24:50</modified>
    <unit name="meter" meter="1" />
    <up_axis>Y_UP</up_axis>
  </asset>
  <library_images>
  </library_images>
  <library_effects>
    <effect id="material_0-fx" name="">
      <profile_COMMON>
        <technique sid="standard">
          <phong>
            <emission>
              <color sid="emission">0   0   0   1</color>
            </emission>
            <diffuse>
              <color sid="diffuse">0.603827357   0.603827357   0.603827357   1</color>
            </diffuse>
            <shininess>
              <float sid="shininess">0</float>
            </shininess>
            <transparency>
              <float sid="transparency">1</float>
            </transparency>
          </phong>
        </technique>
      </profile_COMMON>
    </effect>
    <effect id="material_1-fx" name="">
      <profile_COMMON>
        <technique sid="standard">
          <phong>
            <emission>
              <color sid="emission">0   0   0   1</color>
            </emission>
            <diffuse>
              <color sid="diffuse">1   1   1   1</color>
            </diffuse>
            <shininess>
              <float sid="shininess">0</float>
            </shininess>
            <transparency>
              <float sid="transparency">1</float>
            </transparency>
          </phong>
        </technique>
      </profile_COMMON>
    </effect>
  </library_effects>
  <library_materials>
    <material id="material_0" name="">
      <instance_effect url="#material_0-fx"/>
    </material>
    <material id="material_1" name="">
      <instance_effect url="#material_1-fx"/>
    </material>
  </library_materials>
  <library_geometries>
    <geometry id="meshesQ0S" name="meshes[0]" >
      <mesh>
        <source id="meshesQ0S-positions" name="meshesQ0S-positions">
          <float_array id="meshesQ0S-positions-array" count="126"> 0 -15 5.6500001 0 0 0 0 -15 0 0 0 22 0 -15 22 0 -36.6749992 21.6749992 0 -33.8499985 24.5 58 0 22 58 0 0 0 0 0 0 0 22 58 0 0 58 -15 0 0 -15 0 0 0 0 58 -15 0 58 -36.6749992 21.6749992 0 -36.6749992 21.6749992 0 -15 0 58 -33.8499985 24.5 0 -33.8499985 24.5 0 -36.6749992 21.6749992 58 -36.6749992 21.6749992 58 -15 5.6500001 0 -15 5.6500001 0 -33.8499985 24.5 58 -33.8499985 24.5 58 -15 22 0 -15 22 0 -15 5.6500001 58 -15 5.6500001 58 -15 22 58 0 22 0 0 22 0 -15 22 58 -15 5.6500001 58 -15 0 58 0 0 58 0 22 58 -15 22 58 -36.6749992 21.6749992 58 -33.8499985 24.5 </float_array>
          <technique_common>
            <accessor count="42" offset="0" source="#meshesQ0S-positions-array" stride="3">
              <param name="X" type="float" />
              <param name="Y" type="float" />
              <param name="Z" type="float" />
            </accessor>
          </technique_common>
        </source>
        <source id="meshesQ0S-normals" name="meshesQ0S-normals">
          <float_array id="meshesQ0S-normals-array" count="126"> -1 -0 -0 -1 -0 -0 -1 -0 -0 -1 -0 -0 -1 -0 -0 -1 -0 -0 -1 -0 -0 0 1 0 0 1 0 0 1 0 0 1 0 0 0 -1 0 0 -1 0 0 -1 0 0 -1 0 -0.707106769 -0.707106769 0 -0.707106769 -0.707106769 0 -0.707106769 -0.707106769 0 -0.707106769 -0.707106769 0 -0.707106769 0.707106769 0 -0.707106769 0.707106769 0 -0.707106769 0.707106769 0 -0.707106769 0.707106769 0 0.707106769 0.707106769 0 0.707106769 0.707106769 0 0.707106769 0.707106769 0 0.707106769 0.707106769 0 -1 0 0 -1 0 0 -1 0 0 -1 0 0 0 1 0 0 1 0 0 1 0 0 1 1 0 0 1 0 0 1 0 0 1 0 0 1 0 0 1 0 0 1 0 0 </float_array>
          <technique_common>
            <accessor count="42" offset="0" source="#meshesQ0S-normals-array" stride="3">
              <param name="X" type="float" />
              <param name="Y" type="float" />
              <param name="Z" type="float" />
            </accessor>
          </technique_common>
        </source>
        <vertices id="meshesQ0S-vertices">
          <input semantic="POSITION" source="#meshesQ0S-positions" />
        </vertices>
        <polylist count="24" material="defaultMaterial">
          <input offset="0" semantic="VERTEX" source="#meshesQ0S-vertices" />
          <input offset="0" semantic="NORMAL" source="#meshesQ0S-normals" />
          <vcount>3 3 3 3 3 3 3 3 3 3 3 3 3 3 3 3 3 3 3 3 3 3 3 3 </vcount>
          <p>0 1 2 3 1 0 4 3 0 5 0 2 6 0 5 7 8 9 7 9 10 11 12 13 11 13 14 15 16 17 15 17 18 19 20 21 22 19 21 23 24 25 26 23 25 27 28 29 30 27 29 31 32 33 31 33 34 35 36 37 38 35 37 39 35 38 40 36 35 41 40 35 </p>
        </polylist>
      </mesh>
    </geometry>
  </library_geometries>
  <library_controllers>
  </library_controllers>
  <library_visual_scenes>
    <visual_scene id="Scene" name="Scene">
      <node id="empty_2" name="empty_2" type="NODE">
        <matrix sid="matrix">1 0 0 0 0 1 0 0 0 0 1 0 0 0 0 1</matrix>
        <instance_geometry url="#meshesQ0S">
          <bind_material>
            <technique_common>
              <instance_material symbol="defaultMaterial" target="#material_0">
              </instance_material>
            </technique_common>
          </bind_material>
        </instance_geometry>
      </node>
    </visual_scene>
  </library_visual_scenes>
  <scene>
    <instance_visual_scene url="#Scene" />
  </scene>
</COLLADA>
